<?xml version="1.0" encoding="utf-8"?>
<!-- Generator: Adobe Illustrator 21.1.0, SVG Export Plug-In . SVG Version: 6.00 Build 0)  -->
<svg version="1.1" id="Layer_1" xmlns="http://www.w3.org/2000/svg" xmlns:xlink="http://www.w3.org/1999/xlink" x="0px" y="0px"
	 viewBox="0 0 58 68" style="enable-background:new 0 0 58 68;" xml:space="preserve">
<style type="text/css">
	.st0{fill:#898989;}
</style>
<path class="st0" d="M36.8,30.6c3.7-2.4,6.1-6.5,6.1-11.1c0-7.3-5.9-13.2-13.2-13.2c-7.3,0-13.2,5.9-13.2,13.2
	c0,4.7,2.4,8.8,6.1,11.1c-8.6,0.8-15.4,8-15.4,16.9v13.7l0,0.2l0.9,0.3c8.9,2.8,16.7,3.7,23.1,3.7c12.5,0,19.7-3.6,20.1-3.8l0.9-0.5
	h0.1V47.4C52.3,38.6,45.5,31.3,36.8,30.6z"/>
</svg>
