<?xml version="1.0" encoding="utf-8"?>
<!-- Generator: Adobe Illustrator 21.1.0, SVG Export Plug-In . SVG Version: 6.00 Build 0)  -->
<svg version="1.1" id="Layer_1" xmlns="http://www.w3.org/2000/svg" xmlns:xlink="http://www.w3.org/1999/xlink" x="0px" y="0px"
	 viewBox="0 0 97 71" style="enable-background:new 0 0 97 71;" xml:space="preserve">
<style type="text/css">
	.st0{fill:#FFFFFF;}
</style>
<g>
	<g>
		<g>
			<path class="st0" d="M41.2,59.3c13.1,0,23.7-10.6,23.7-23.7c0-4-1.4-10.2-4.9-12.9c-0.2-0.1-1.8,1.6-1.8,1.6L56,26.5
				c1.6,2.7,2.6,5.8,2.6,9.2c0,9.6-7.8,17.4-17.4,17.4c-9.6,0-17.4-7.8-17.4-17.4c0-9.6,7.8-17.4,17.4-17.4c3.4,0,6.5,1,9.2,2.6l2-2
				c0,0,2.1-2,1.9-2.2c-4.1-4-9.1-4.7-13-4.7c-13.1,0-23.7,10.6-23.7,23.7C17.5,48.7,28.1,59.3,41.2,59.3L41.2,59.3z M41.2,59.3"/>
			<path class="st0" d="M41.2,29.5c0.2,0,0.3,0,0.5,0l4.4-4.4l0.1-0.1C44.6,24.4,43,24,41.2,24c-6.4,0-11.6,5.2-11.6,11.6
				c0,6.4,5.2,11.7,11.6,11.7c6.4,0,11.7-5.2,11.7-11.6c0-1.8-0.4-3.4-1.1-4.9l-0.1,0.1l-4.4,4.4c0,0.2,0,0.3,0,0.5
				c0,3.4-2.7,6.1-6.1,6.1c-3.4,0-6.1-2.7-6.1-6.1C35.1,32.3,37.8,29.5,41.2,29.5L41.2,29.5z M41.2,29.5"/>
			<path class="st0" d="M65.6,14.2l1.3-1.3c0.6-0.6,0.6-1.5,0-2.1L66,9.9c-0.3-0.3-0.7-0.4-1.1-0.4c-0.4,0-0.8,0.1-1.1,0.4l-1.5,1.5
				l-0.3-3.9c0-0.3-0.3-0.5-0.5-0.5c-0.1,0-0.3,0-0.4,0.1l-5.8,5.8c-0.5,0.5-0.8,1.2-0.7,2l0,0.2l0.3,3.6L53,20.8l-3.7,3.8l-0.1,0.1
				l-3.6,3.6l-1.6,1.6c-0.2,0.2-0.3,0.5-0.4,0.8L43.5,32c-0.1,0.7,0.5,1.4,1.3,1.4h0.1l1.3-0.1c0.3,0,0.6-0.1,0.8-0.4l11.3-11.3
				l3.3,0.3l0.1,0c0.1,0,0.1,0,0.2,0c0.7,0,1.3-0.3,1.8-0.7l5.8-5.8c0.3-0.3,0.1-0.8-0.3-0.9L65.6,14.2z M65.6,14.2"/>
		</g>
	</g>
</g>
</svg>
