<svg xmlns="http://www.w3.org/2000/svg" viewBox="0 0 52.07 52.3"><defs><style>.cls-1{fill:#fff;}</style></defs><title>target_white</title><g id="Layer_2" data-name="Layer 2"><g id="Layer_1-2" data-name="Layer 1"><path class="cls-1" d="M23.66,52.3A23.65,23.65,0,0,0,47.31,28.64c0-4-1.44-10.18-4.92-12.89-.15-.12-1.79,1.57-1.79,1.57l-2.16,2.17a17.38,17.38,0,1,1-5.63-5.63l2-2s2.08-2,1.88-2.2C32.6,5.71,27.58,5,23.65,5a23.66,23.66,0,0,0,0,47.31Zm0,0"/><path class="cls-1" d="M23.66,22.53l.47,0,4.37-4.37.09-.09a11.67,11.67,0,1,0,5.63,5.63l-.09.09-4.37,4.37c0,.15,0,.31,0,.46a6.11,6.11,0,1,1-6.11-6.12Zm0,0"/><path class="cls-1" d="M48.1,7.18,49.38,5.9a1.48,1.48,0,0,0,0-2.11L48.5,2.9a1.49,1.49,0,0,0-2.11,0L44.92,4.36l-.3-3.9a.49.49,0,0,0-.5-.46.5.5,0,0,0-.36.15L38,5.91a2.54,2.54,0,0,0-.74,2l0,.23.28,3.61-2.09,2.08-3.75,3.75-.09.08L28,21.28,26.39,22.9a1.22,1.22,0,0,0-.36.79L25.92,25a1.27,1.27,0,0,0,1.26,1.37h.07l1.33-.07a1.22,1.22,0,0,0,.83-.37L40.74,14.54l3.3.25h.34a2.54,2.54,0,0,0,1.79-.73l5.76-5.76a.5.5,0,0,0-.32-.85Zm0,0"/></g></g></svg>